PathFileType	4	(X/Y/Z)	..\data\2014048\dynamic\2014048_C5_02.trc
DataRate	CameraRate	NumFrames	NumMarkers	Units	OrigDataRate	OrigDataStartFrame	OrigNumFrames
100.000000	100.000000	4	52	mm	100.000000	108	144
Frame#	Time	L_IAS			L_IPS			R_IPS			R_IAS			L_FTC			L_FLE			L_FME			L_FAX			L_TTC			L_FAL			L_TAM			L_FCC			L_FM1			L_FM2			L_FM5			R_FTC			R_FLE			R_FME			R_FAX			R_TTC			R_FAL			R_TAM			R_FCC			R_FM1			R_FM2			R_FM5			CV7			TV10			SXS			SJN			L_SIA			L_SRS			L_SAA			L_SAE			L_HLE			L_HME			L_UOA			L_RSP			L_UHE			L_HM2			L_HM5			R_SIA			R_SRS			R_SAA			R_SAE			R_HLE			R_HME			R_UOA			R_RSP			R_UHE			R_HM2			R_HM5			
		X1	Y1	Z1	X2	Y2	Z2	X3	Y3	Z3	X4	Y4	Z4	X5	Y5	Z5	X6	Y6	Z6	X7	Y7	Z7	X8	Y8	Z8	X9	Y9	Z9	X10	Y10	Z10	X11	Y11	Z11	X12	Y12	Z12	X13	Y13	Z13	X14	Y14	Z14	X15	Y15	Z15	X16	Y16	Z16	X17	Y17	Z17	X18	Y18	Z18	X19	Y19	Z19	X20	Y20	Z20	X21	Y21	Z21	X22	Y22	Z22	X23	Y23	Z23	X24	Y24	Z24	X25	Y25	Z25	X26	Y26	Z26	X27	Y27	Z27	X28	Y28	Z28	X29	Y29	Z29	X30	Y30	Z30	X31	Y31	Z31	X32	Y32	Z32	X33	Y33	Z33	X34	Y34	Z34	X35	Y35	Z35	X36	Y36	Z36	X37	Y37	Z37	X38	Y38	Z38	X39	Y39	Z39	X40	Y40	Z40	X41	Y41	Z41	X42	Y42	Z42	X43	Y43	Z43	X44	Y44	Z44	X45	Y45	Z45	X46	Y46	Z46	X47	Y47	Z47	X48	Y48	Z48	X49	Y49	Z49	X50	Y50	Z50	X51	Y51	Z51	X52	Y52	Z52	

109	1.08	401.0492553710939	862.4089965820315	112.9295806884766	204.3980407714844	917.8309326171877	175.3999023437501	205.621337890625	926.0451660156252	282.4259338378907	408.8251037597657	882.4058837890627	348.238494873047	327.4020080566407	840.7369384765627	49.62577819824224	309.8370361328126	416.6404724121095	81.89350891113287	343.4496154785157	401.9387207031251	209.6155700683595	264.8815002441407	377.8817749023438	80.33640289306645	304.9616699218751	331.7854614257813	132.5562896728516	-2.539229393005388	213.0403594970704	138.477035522461	40.69952011108396	190.3041076660157	215.3878326416016	-49.11615753173832	223.7260131835938	203.8722076416016	20.21784019470213	55.40882873535158	190.6466064453125	24.30241394042968	61.80476379394533	143.5495300292969	-21.91988182067873	102.0208969116211	105.8587493896485	332.2450561523438	860.8599243164065	427.885955810547	447.1424560546876	442.4056701660157	366.6199951171876	445.9424743652344	448.5443115234376	236.4672698974611	443.8378295898438	386.7315368652345	369.0549926757814	494.7057189941407	390.979705810547	308.0998840332032	440.7334899902344	58.11657333374025	337.3695068359376	451.7588806152344	78.21615600585939	250.5174713134767	391.7089843750001	19.52984237670899	289.6995239257814	569.7833251953126	19.36642456054688	258.4945373535157	573.4640502929689	28.96518325805665	311.6181945800782	529.4165649414064	15.92938232421875	355.4658508300782	264.4417724609376	1379.053466796875	226.7803192138673	210.1077880859375	1102.87548828125	222.8833007812501	426.7943420410157	1072.051025390625	241.7359161376954	383.6507873535156	1300.941040039063	238.4375915527345	195.1954193115235	1166.177124023438	144.3248291015626	228.4825134277344	1305.549560546875	142.5366821289063	279.2668151855469	1312.661499023438	70.07336425781254	327.9394836425782	1316.905517578125	68.05868530273443	328.6886291503907	1012.800170898438	-21.34780693054196	304.4941101074219	988.3220214843752	61.47340774536138	308.9809570312501	968.8826904296877	11.72527694702152	521.4461059570314	856.8743896484377	17.66634559631354	477.2770080566407	829.2890625000002	-38.09490585327143	591.0341186523439	800.4876708984377	8.557929992675856	518.3913574218751	761.7841186523439	-43.27024841308588	190.1964874267578	1158.779296875	311.7229003906251	218.8153228759766	1300.321411132813	311.2560424804688	264.4695739746094	1307.241333007813	389.9826049804689	309.6002502441406	1303.779663085938	412.2068481445314	201.5868225097656	1008.278076171875	453.962127685547	207.5892333984375	994.375427246094	372.6790771484376	185.4166717529297	993.9124145507815	417.6005249023439	236.1157073974609	761.0798950195314	479.3186645507814	160.1437530517578	786.4195556640627	498.5700683593751	212.6340942382812	671.2453613281251	494.1607666015626	129.5062561035156	721.6264648437501	510.0742492675782	
110	1.09	415.4338684082032	864.5939941406252	114.2258453369141	218.2400360107422	919.8801879882815	175.7453308105469	219.191650390625	928.4212646484377	282.7553100585938	421.8521728515626	884.037780761719	349.9831848144532	342.3256835937501	842.7648925781252	50.5356063842774	337.6631774902344	418.3109741210939	82.67468261718756	371.9221191406251	404.1414184570314	210.5637969970704	293.5976867675782	379.6541137695313	81.33052062988287	334.5901489257813	334.0250854492188	133.4353332519532	25.91766166687011	216.7238464355469	140.001449584961	69.33332061767577	193.3704376220704	216.7085418701172	-21.12629318237308	226.3653717041016	205.5312194824219	49.85554122924804	58.3366165161133	188.8765106201172	53.85603713989258	65.53122711181642	142.4640502929688	7.414047718048084	107.221664428711	105.3339462280274	344.33251953125	862.147399902344	428.9029846191408	452.9207458496094	442.2047729492189	367.2539978027345	451.3022155761719	448.1521606445314	237.1329803466798	448.5103759765626	386.4701538085939	369.5788574218751	499.6716613769532	390.0285949707032	308.7274475097657	441.1057434082032	58.10313034057619	337.1298828125001	452.1634216308594	78.16200256347658	250.4184570312501	391.8334045410157	19.60813713073731	289.6294555664064	569.7860107421876	19.62750244140625	258.211639404297	573.7296752929689	29.36862945556641	311.6744995117189	529.4960937500001	16.39397239685059	355.6482849121095	279.1310424804688	1381.34814453125	227.1658630371095	224.3229217529297	1105.162231445313	223.603240966797	440.9956054687501	1073.994140625	242.4363708496095	398.1269226074219	1303.108154296875	238.9291534423829	209.5171661376953	1168.141479492188	145.0889282226563	242.9019470214844	1307.712524414063	143.2440185546876	293.4237365722657	1314.539916992188	70.63223266601568	342.1799926757813	1318.646728515625	68.39396667480474	338.7267150878907	1013.880126953125	-19.55373954772945	314.6876525878907	990.354919433594	63.53304672241216	318.2226867675782	970.892272949219	13.9439325332642	526.9199829101564	851.7802734375002	18.98311996459968	481.5402221679689	825.887145996094	-36.71382522583003	593.9943847656251	792.2856445312502	10.36476898193367	519.9750976562501	756.7568359375001	-41.70157241821283	204.7368774414063	1161.154541015625	313.0529479980469	233.3926086425782	1302.712768554688	312.1875305175782	279.4374084472656	1309.486328125	390.8062133789064	324.79541015625	1306.017944335938	412.6643371582033	222.3931579589844	1008.391052246094	456.4025878906251	226.4594573974609	994.967712402344	375.0905456542969	205.55712890625	993.8035278320315	420.3668823242189	262.9974975585938	761.7642822265626	479.2049865722658	187.4150695800781	785.2244262695315	501.079071044922	243.2660522460938	671.8344726562501	494.6411132812502	159.0726776123047	719.2864379882814	513.3667602539064	
111	1.1	429.6145324707032	867.026306152344	115.2767257690431	231.8954010009766	922.1380004882815	176.3227081298829	232.7142333984375	930.8059692382815	283.253631591797	434.8415832519532	885.5847778320315	351.5697021484376	356.7715759277344	845.1157226562502	51.44010925292974	365.2862548828126	420.7037963867189	83.63991546630865	399.9776000976564	407.2655029296876	211.6830139160157	322.1735839843751	381.8935241699219	82.56643676757818	364.5228881835938	336.9674682617188	134.4322052001954	55.53139495849609	218.6109466552735	141.582260131836	99.30625152587891	195.059799194336	218.0785217285157	7.90110063552854	226.6401824951172	207.1959686279297	82.77733612060545	60.2771339416504	187.1228942871094	86.53519439697266	68.49192047119142	141.3313903808594	39.42444992065429	110.6549453735352	104.8347930908203	356.51904296875	863.318786621094	429.8211975097658	458.1180725097657	441.9379272460939	367.7336730957032	456.2183837890626	447.6460571289064	237.6441955566407	452.5993652343751	386.1511230468751	369.9705200195314	504.0587158203126	389.052703857422	309.240447998047	441.3448486328126	58.02255249023439	336.928924560547	452.5113220214844	78.0979461669922	250.3748626708986	391.8541259765626	19.65578079223633	289.5753479003907	569.7520141601564	19.89598846435547	258.0027465820314	573.8883666992189	29.74220657348634	311.7236633300782	529.5332641601564	16.74701499938965	355.7792053222657	293.6406860351563	1383.67333984375	227.4551696777345	238.4358367919922	1107.43359375	224.2665252685548	455.0619812011719	1075.977661132813	242.9467163085939	412.4211425781251	1305.269653320313	239.3055267333986	223.7148742675782	1170.057373046875	145.7591247558594	257.1301269531251	1309.869995117188	143.8777618408204	307.3306884765626	1316.380981445313	71.10055541992193	356.1608276367188	1320.378295898438	68.56703948974615	348.5162658691407	1014.97265625	-17.77696609497066	324.6967468261719	992.4421997070315	65.49745941162115	327.2464599609376	973.022399902344	16.17446899414067	531.7198486328126	846.5815429687502	20.23336601257331	485.0811767578126	822.4915771484377	-35.3900871276855	595.9859008789064	783.936462402344	12.21712684631355	520.7448120117189	751.7990722656251	-40.17753219604487	219.085922241211	1163.5498046875	314.3267517089844	247.7822265625	1305.1328125	313.012908935547	294.2278747558594	1311.778564453125	391.5202636718752	339.803955078125	1308.318969726563	413.0089721679689	243.3835601806641	1008.582397460938	458.8096008300783	245.4497528076172	995.5764160156252	377.511932373047	225.8576354980469	993.7322998046877	423.1178283691407	290.4148254394531	762.7599487304689	479.0036926269533	215.3074493408203	784.1868896484377	503.456756591797	274.7428283691406	672.8537597656251	495.0299072265627	189.4781799316406	717.0745239257814	516.4248657226564	
112	1.11	443.6406250000001	869.6702270507815	116.1336059570313	245.4312744140625	924.575866699219	177.0774841308594	246.209228515625	933.1807250976565	283.8817138671876	447.8330993652344	887.0760498046877	352.9994506835939	370.8172912597657	847.7495727539065	52.34031677246099	392.6026306152345	423.7712402343751	84.74253845214849	427.5833740234376	411.229461669922	212.9033660888673	350.4982910156251	384.5608825683595	83.97096252441412	394.5921020507814	340.5509643554688	135.4794921875001	86.17213439941406	218.6194305419922	143.1656951904297	130.5076293945312	195.2903747558594	219.437713623047	37.90010452270506	224.5607910156251	208.8173065185547	118.6279296875	61.11362457275392	185.5169219970704	121.9868316650391	70.48030090332033	140.2579650878907	73.79351806640625	112.1450881958008	104.4259948730469	368.8351440429688	864.4511718750002	430.6297302246095	462.8323059082032	441.6446228027345	368.0765991210939	460.8581848144532	447.0935058593751	238.0184783935548	456.2219238281251	385.8182067871095	370.2469787597657	507.9634094238282	388.0877075195314	309.6551818847657	441.4707336425782	57.88767623901369	336.7786865234376	452.8261108398438	78.03897094726564	250.3962860107423	391.7741394042969	19.69584274291993	289.5508422851564	569.6936035156251	20.1176815032959	257.8711547851564	573.9622192382814	30.02976417541505	311.7738647460939	529.5346069335939	16.9590129852295	355.872039794922	307.9792175292969	1386.001342773438	227.6602020263673	252.4769897460938	1109.66259765625	224.8707122802735	469.0111999511719	1077.994995117188	243.2761383056642	426.5515441894532	1307.407470703125	239.5770416259767	237.8032531738282	1171.919921875	146.3453063964844	271.1811218261719	1312.004150390625	144.4471740722657	321.0117797851563	1318.181396484375	71.49607086181646	369.9052124023438	1322.095581054688	68.60538482666021	358.0748901367188	1016.093383789063	-16.00822448730465	334.5488586425782	994.5984497070315	67.37542724609381	336.0893859863282	975.269714355469	18.40449333190923	535.8576049804689	841.3511962890627	21.41732597351081	487.9106750488282	819.1558227539065	-34.10781478881831	597.0400390625001	775.5743408203127	14.07465839385994	520.7354125976564	746.9979248046876	-38.69982528686518	233.2702789306641	1165.949951171875	315.5410156250001	262.0033874511719	1307.563842773438	313.7374267578126	308.8599243164062	1314.112548828125	392.1248779296877	354.6408081054688	1310.677856445313	413.245330810547	264.5176696777344	1008.882995605469	461.1498107910158	264.5680541992188	996.220886230469	379.9019775390626	246.306640625	993.7144775390627	425.8198547363283	318.33349609375	764.1389160156251	478.7127685546877	243.7701263427734	783.3911743164065	505.6664428710939	306.9589233398438	674.3791503906251	495.3137207031252	220.6545562744141	715.1185913085939	519.2161865234376	
